<svg width="1439" height="16" viewBox="0 0 1439 16" fill="none" xmlns="http://www.w3.org/2000/svg">
<path d="M1438 8C1404.79 8 1366.67 10.5391 1333.58 10.5391C1293.85 10.5391 1254.28 8.48957 1214.74 7.75733C1208.06 7.63378 1202.13 4.97561 1195.57 4.97561C1187.06 4.97561 1178.09 5.83562 1169.69 4.28018C1158.59 2.22418 1146.08 2.19388 1134.76 2.19388C1099.69 2.19388 1065.47 9.1482 1030.45 9.1482C970.605 9.1482 910.628 10.5391 850.948 10.5391C825.218 10.5391 798.163 8.83377 773.06 13.3981C763.449 15.1455 753.721 14.7117 743.852 14.7117C737.178 14.7117 729.974 10.9063 723.607 8.83912C714.475 5.87426 705.961 5.19795 696.717 2.96658C682.759 -0.402619 665.914 2.19388 651.745 2.19388C633.252 2.19388 614.759 2.19388 596.265 2.19388C589.054 2.19388 581.842 2.19388 574.63 2.19388C569.132 2.19388 565.19 4.44535 560.026 5.05288C552.129 5.9819 542.053 8.82744 534.604 11.6208C528.563 13.8861 518.699 11.9299 512.35 11.9299C480.927 11.9299 449.504 11.9299 418.08 11.9299C408.705 11.9299 399.329 11.9299 389.954 11.9299C369.394 11.9299 349.528 6.36647 328.601 6.36647C312.931 6.36647 297.277 3.58474 281.544 3.58474C269.254 3.58474 256.712 4.29833 244.454 3.50747C229.491 2.54212 214.919 2.19388 199.869 2.19388C179.969 2.19388 162.631 4.2104 142.767 5.67104C127.755 6.77483 112.88 7.69569 97.8727 8.83912C86.7653 9.68539 74.8909 10.5391 63.7965 10.5391C59.2678 10.5391 55.1225 11.9299 50.5833 11.9299C35.8272 11.9299 11.912 10.5391 -3 10.5391" stroke="black" stroke-linecap="round"/>
</svg>
